<?xml version="1.0" encoding="UTF-8"?>
<svg id="Layer_1" data-name="Layer 1" xmlns="http://www.w3.org/2000/svg" viewBox="0 0 850.39 595.28">
  <defs>
    <style>
      .cls-1 {
        fill: #231f20;
      }
    </style>
  </defs>
  <g>
    <path class="cls-1" d="M260.32,297.64h-12.77v-12.81c0-12.47,9.58-21.78,22.06-21.78h34.22v12.77h-33.66c-5.43,0-9.82,3.58-9.82,9.01l-.03,12.81Z"/>
    <path class="cls-1" d="M291.06,297.64h12.77v12.81c0,12.47-9.58,21.78-22.06,21.78h-34.22v-12.77h33.66c5.43,0,9.82-3.58,9.82-9.01l.03-12.81Z"/>
  </g>
  <g>
    <path class="cls-1" d="M334.66,287.62c0-1.95.45-3.59,1.35-4.92.9-1.33,2.06-2.42,3.49-3.26,1.42-.84,3.01-1.45,4.75-1.83,1.74-.37,3.46-.56,5.15-.56,1.2,0,2.41.12,3.63.37,1.22.24,2.41.6,3.57,1.07s2.25,1.05,3.26,1.74c1.01.69,1.91,1.49,2.7,2.39l-4.33,3.88c-1.31-1.31-2.75-2.22-4.3-2.73-1.56-.51-3.27-.76-5.15-.76-.86,0-1.74.08-2.62.23-.88.15-1.7.39-2.45.73-.75.34-1.36.79-1.83,1.35-.47.56-.7,1.26-.7,2.08,0,.94.12,1.71.37,2.31.24.6.6,1.1,1.07,1.49.47.39,1.02.72,1.66.98.64.26,1.35.53,2.14.79,1.8.6,3.62,1.1,5.46,1.49,1.84.39,3.64,1.02,5.4,1.88,1.95.94,3.52,2.18,4.7,3.71,1.18,1.54,1.77,3.54,1.77,6.02,0,2.14-.45,3.94-1.35,5.4-.9,1.46-2.06,2.64-3.49,3.54-1.43.9-3.03,1.54-4.81,1.91s-3.57.56-5.37.56c-1.58,0-3.13-.18-4.67-.54-1.54-.36-2.99-.89-4.36-1.6-1.37-.71-2.62-1.59-3.74-2.64s-2.06-2.29-2.81-3.71l5.23-2.76c1.09,1.69,2.5,3,4.25,3.94,1.74.94,3.8,1.41,6.16,1.41,1.05,0,2.09-.09,3.12-.28,1.03-.19,1.95-.49,2.76-.9.81-.41,1.46-.97,1.97-1.66.51-.69.76-1.53.76-2.5,0-.86-.13-1.58-.39-2.17-.26-.58-.64-1.06-1.13-1.43-.49-.37-1.05-.69-1.69-.96s-1.31-.51-2.02-.73c-1.84-.64-3.69-1.16-5.54-1.58-1.86-.41-3.67-1.05-5.43-1.91-.98-.49-1.87-1-2.67-1.55-.81-.54-1.49-1.2-2.05-1.97-.56-.77-1-1.66-1.32-2.67-.32-1.01-.48-2.23-.48-3.66Z"/>
    <path class="cls-1" d="M379.61,317.5c-3.53,0-6.21-.84-8.04-2.53-1.84-1.69-2.76-4.29-2.76-7.82v-17.61l6.13-1.74v18.06c0,.98.05,1.84.14,2.59.09.75.31,1.4.65,1.94.34.54.82.96,1.43,1.24.62.28,1.43.42,2.45.42.79,0,1.52-.13,2.19-.39.68-.26,1.32-.61,1.94-1.04.62-.43,1.2-.91,1.74-1.43s1.06-1.07,1.55-1.63v-18l6.13-1.74v22.56c0,1.43.13,2.59.39,3.49.11.45.27.93.48,1.43.21.51.46,1.02.76,1.55h-6.47c-.3-.45-.54-.98-.73-1.6-.19-.62-.28-1.19-.28-1.72-1.09,1.13-2.24,2.07-3.46,2.84-1.22.77-2.64,1.15-4.25,1.15Z"/>
    <path class="cls-1" d="M414.94,287.79c2.1,0,3.97.33,5.6.99,1.63.66,3.01,1.57,4.13,2.73,1.13,1.16,1.98,2.57,2.56,4.22.58,1.65.87,3.45.87,5.4v3.6c0,2.1-.3,3.95-.9,5.54-.6,1.59-1.45,2.93-2.56,3.99-1.11,1.07-2.44,1.88-4,2.42-1.56.54-3.27.82-5.15.82-1.46,0-2.94-.38-4.44-1.13-1.5-.75-2.78-1.63-3.83-2.64v14.01h-6.13v-32.29c0-1.01-.08-1.89-.25-2.64s-.42-1.58-.76-2.48l5.46-2.53c.3.53.56,1.05.79,1.58.23.53.41,1.11.56,1.74h.34c.97-1.09,2.15-1.91,3.52-2.48,1.37-.56,2.77-.84,4.19-.84ZM414.83,293.19c-1.46,0-2.87.39-4.22,1.18-1.35.79-2.48,1.74-3.38,2.87v10.35c.49.56,1.05,1.11,1.69,1.63.64.53,1.31.99,2.02,1.41.71.41,1.45.75,2.22,1.01.77.26,1.55.39,2.33.39,1.27,0,2.33-.2,3.18-.59.84-.39,1.51-.93,2-1.6.49-.68.82-1.48,1.01-2.42.19-.94.28-1.95.28-3.04v-2.87c0-1.16-.11-2.25-.34-3.26-.23-1.01-.62-1.89-1.18-2.64s-1.3-1.34-2.22-1.77c-.92-.43-2.05-.65-3.4-.65Z"/>
    <path class="cls-1" d="M437.22,304.56c0,1.09.14,2.09.42,3.01.28.92.75,1.71,1.41,2.36.66.66,1.53,1.17,2.62,1.55,1.09.38,2.44.56,4.05.56,1.42,0,2.53-.21,3.32-.62.79-.41,1.63-1.05,2.53-1.91l5.06,2.08c-1.2,2.02-2.79,3.52-4.78,4.47-1.99.96-4.13,1.43-6.41,1.43-4.69,0-8.25-1.22-10.69-3.66-2.44-2.44-3.66-6.04-3.66-10.8v-2.02c0-.45.02-.88.06-1.29.08-1.8.49-3.43,1.24-4.89.75-1.46,1.74-2.72,2.98-3.77,1.24-1.05,2.66-1.86,4.28-2.42,1.61-.56,3.32-.84,5.12-.84,2.06,0,3.9.33,5.51.99s2.98,1.58,4.11,2.76c1.13,1.18,1.98,2.61,2.56,4.28.58,1.67.87,3.52.87,5.54v3.21h-20.59ZM437.22,299.32h14.46c0-.9-.17-1.72-.51-2.48-.34-.75-.82-1.39-1.43-1.91-.62-.53-1.35-.94-2.19-1.24-.84-.3-1.77-.45-2.78-.45-.94,0-1.86.11-2.76.34-.9.23-1.71.59-2.42,1.1-.71.51-1.28,1.14-1.72,1.91-.43.77-.65,1.68-.65,2.73Z"/>
    <path class="cls-1" d="M469.46,291.34c.71-1.13,1.54-2,2.48-2.62.94-.62,2.1-.93,3.49-.93,1.46,0,3.02.41,4.67,1.24l-2.14,5.68c-.94-.56-1.86-.84-2.76-.84-1.2,0-2.18.33-2.93.99-.75.66-1.33,1.48-1.74,2.47-.41.99-.69,2.05-.84,3.18-.15,1.13-.23,2.14-.23,3.04v13.28h-6.13v-21.38c0-1.01-.08-1.92-.23-2.73-.15-.81-.43-1.6-.84-2.39l5.51-2.53c.3.56.57,1.14.82,1.72.24.58.42,1.19.54,1.83h.34Z"/>
    <path class="cls-1" d="M488.7,304.56c0,1.09.14,2.09.42,3.01s.75,1.71,1.41,2.36c.66.66,1.53,1.17,2.62,1.55,1.09.38,2.44.56,4.05.56,1.42,0,2.53-.21,3.32-.62.79-.41,1.63-1.05,2.53-1.91l5.06,2.08c-1.2,2.02-2.79,3.52-4.78,4.47-1.99.96-4.13,1.43-6.41,1.43-4.69,0-8.25-1.22-10.69-3.66-2.44-2.44-3.66-6.04-3.66-10.8v-2.02c0-.45.02-.88.06-1.29.08-1.8.49-3.43,1.24-4.89.75-1.46,1.74-2.72,2.98-3.77,1.24-1.05,2.66-1.86,4.28-2.42,1.61-.56,3.32-.84,5.12-.84,2.06,0,3.9.33,5.51.99s2.98,1.58,4.11,2.76c1.13,1.18,1.98,2.61,2.56,4.28.58,1.67.87,3.52.87,5.54v3.21h-20.59ZM488.7,299.32h14.46c0-.9-.17-1.72-.51-2.48-.34-.75-.82-1.39-1.43-1.91-.62-.53-1.35-.94-2.19-1.24-.84-.3-1.77-.45-2.78-.45-.94,0-1.86.11-2.76.34-.9.23-1.71.59-2.42,1.1-.71.51-1.28,1.14-1.72,1.91-.43.77-.65,1.68-.65,2.73Z"/>
    <path class="cls-1" d="M528.36,293.19c-.6,0-1.24.07-1.91.2-.68.13-1.33.31-1.97.54-.64.22-1.25.52-1.83.87-.58.36-1.08.76-1.49,1.21v20.82h-6.13v-21.38c0-1.01-.08-1.9-.22-2.67-.15-.77-.43-1.58-.84-2.45l5.51-2.53c.3.53.56,1.05.79,1.58.23.53.41,1.11.56,1.74h.34c.49-.49,1.06-.94,1.72-1.35.66-.41,1.34-.77,2.05-1.07.71-.3,1.43-.52,2.17-.67.73-.15,1.42-.23,2.05-.23,1.61,0,3.09.22,4.42.65,1.33.43,2.48,1.06,3.46,1.88.97.83,1.73,1.87,2.28,3.12.54,1.26.82,2.69.82,4.3v19.07h-6.13v-17.83c0-3.86-1.88-5.79-5.63-5.79Z"/>
    <path class="cls-1" d="M564.76,313.11c-1.05,1.05-2.16,1.93-3.32,2.64-1.16.71-2.51,1.07-4.05,1.07-3.86,0-6.81-1.1-8.83-3.29-2.02-2.19-3.04-5.18-3.04-8.97v-2.93c0-4.73,1.23-8.21,3.69-10.46,2.46-2.25,6.03-3.38,10.72-3.38,1.8,0,3.67.16,5.6.48,1.93.32,3.72.83,5.37,1.55v25.99c0,1.84-.34,3.52-1.01,5.06-.68,1.54-1.61,2.87-2.81,3.99s-2.61,2-4.22,2.62c-1.61.62-3.34.93-5.18.93-2.06,0-4.01-.24-5.85-.73-1.84-.49-3.66-1.26-5.46-2.31l2.87-5.01c1.42.86,2.79,1.44,4.11,1.74,1.31.3,2.79.45,4.44.45,2.44,0,4.21-.63,5.32-1.88,1.11-1.26,1.66-3.07,1.66-5.43v-2.14ZM557.39,311.36c1.58,0,2.95-.43,4.13-1.29,1.18-.86,2.26-1.93,3.24-3.21v-12.77c-.86-.3-1.64-.51-2.33-.65-.69-.13-1.49-.2-2.39-.2-1.58,0-2.9.15-3.97.45-1.07.3-1.93.79-2.59,1.46-.66.68-1.13,1.55-1.41,2.62-.28,1.07-.42,2.39-.42,3.97v2.48c0,1.13.06,2.13.2,3.01.13.88.4,1.63.82,2.25.41.62.99,1.09,1.74,1.41.75.32,1.74.48,2.98.48Z"/>
    <path class="cls-1" d="M582.25,304.56c0,1.09.14,2.09.42,3.01s.75,1.71,1.41,2.36c.66.66,1.53,1.17,2.62,1.55,1.09.38,2.44.56,4.05.56,1.42,0,2.53-.21,3.32-.62.79-.41,1.63-1.05,2.53-1.91l5.06,2.08c-1.2,2.02-2.79,3.52-4.78,4.47-1.99.96-4.13,1.43-6.41,1.43-4.69,0-8.25-1.22-10.69-3.66-2.44-2.44-3.66-6.04-3.66-10.8v-2.02c0-.45.02-.88.06-1.29.08-1.8.49-3.43,1.24-4.89.75-1.46,1.74-2.72,2.98-3.77,1.24-1.05,2.66-1.86,4.28-2.42,1.61-.56,3.32-.84,5.12-.84,2.06,0,3.9.33,5.51.99s2.98,1.58,4.11,2.76,1.98,2.61,2.56,4.28c.58,1.67.87,3.52.87,5.54v3.21h-20.59ZM582.25,299.32h14.46c0-.9-.17-1.72-.51-2.48-.34-.75-.82-1.39-1.43-1.91-.62-.53-1.35-.94-2.19-1.24-.84-.3-1.77-.45-2.78-.45-.94,0-1.86.11-2.76.34-.9.23-1.71.59-2.42,1.1-.71.51-1.28,1.14-1.72,1.91-.43.77-.65,1.68-.65,2.73Z"/>
  </g>
</svg>